<svg xmlns="http://www.w3.org/2000/svg" viewBox="0 0 128 128" role="img" aria-labelledby="title desc">
  <title id="title">Sentinel One Logo</title>
  <desc id="desc">Shield emblem with S mark for Sentinel One</desc>
  <defs>
    <linearGradient id="shieldGrad" x1="0" y1="0" x2="1" y2="1">
      <stop offset="0%" stop-color="#22d3ee" />
      <stop offset="100%" stop-color="#34d399" />
    </linearGradient>
    <linearGradient id="sGrad" x1="0" y1="0" x2="1" y2="1">
      <stop offset="0%" stop-color="#f8fafc" />
      <stop offset="100%" stop-color="#dbeafe" />
    </linearGradient>
  </defs>
  <rect x="2" y="2" width="124" height="124" rx="28" fill="#0f172a" stroke="#334155" stroke-width="4" />
  <path d="M64 14 102 30v30c0 27-18 45-38 54C44 105 26 87 26 60V30z" fill="url(#shieldGrad)" />
  <path d="M83 44c-2-8-9-14-19-14-12 0-20 7-20 17 0 8 5 13 15 16l8 3c4 1 6 3 6 6 0 4-3 6-8 6-6 0-9-3-10-8H41c1 12 10 20 24 20 13 0 22-8 22-18 0-9-5-14-15-17l-8-3c-4-1-6-3-6-6 0-3 3-5 7-5 5 0 8 3 9 8z" fill="url(#sGrad)" />
</svg>
